<svg width="378" height="238" xmlns="http://www.w3.org/2000/svg" xmlns:xlink="http://www.w3.org/1999/xlink" xml:space="preserve" overflow="hidden"><defs><clipPath id="clip0"><rect x="0" y="0" width="378" height="238"/></clipPath></defs><g clip-path="url(#clip0)"><path d="M242.726 293.893 620.726 293.893 620.726 531.183 242.726 531.183Z" fill="#FFFFFF" transform="matrix(1 0 0 1.00165 -242.726 -294.057)"/><path d="M300.129 482.11 531.982 482.11M300.129 459.724 531.982 459.724M300.129 437.338 531.982 437.338M300.129 414.949 531.982 414.949M300.129 392.564 531.982 392.564M300.129 370.498 531.982 370.498M300.129 348.112 531.982 348.112M300.129 325.723 531.982 325.723M300.129 303.327 531.982 303.327" stroke="#F2F2F2" stroke-width="1.0993" stroke-linejoin="round" stroke-miterlimit="10" fill="none" transform="matrix(1 0 0 1.00165 -242.726 -294.057)"/><path d="M300.129 303.327 531.982 303.327 531.982 504.48 300.129 504.48Z" stroke="#000000" stroke-width="1.0993" stroke-linejoin="round" stroke-miterlimit="10" fill="none" transform="matrix(1 0 0 1.00165 -242.726 -294.057)"/><path d="M334.997 463.242 381.371 463.242 381.371 504.48 334.997 504.48ZM450.77 461.643 497.14 461.643 497.14 504.48 450.77 504.48Z" stroke="#000000" stroke-width="1.0993" stroke-linejoin="round" stroke-miterlimit="10" fill="#66CCFF" transform="matrix(1 0 0 1.00165 -242.726 -294.057)"/><path d="M334.997 407.594 381.371 407.594 381.371 463.242 334.997 463.242ZM450.77 406.315 497.14 406.315 497.14 461.643 450.77 461.643Z" stroke="#000000" stroke-width="1.0993" stroke-linejoin="round" stroke-miterlimit="10" fill="#FF6600" transform="matrix(1 0 0 1.00165 -242.726 -294.057)"/><path d="M334.997 327.642 381.371 327.642 381.371 407.594 334.997 407.594ZM450.77 333.398 497.14 333.398 497.14 406.315 450.77 406.315Z" stroke="#000000" stroke-width="1.0993" stroke-linejoin="round" stroke-miterlimit="10" fill="#FFFF00" transform="matrix(1 0 0 1.00165 -242.726 -294.057)"/><path d="M334.997 323.164 381.371 323.164 381.371 327.642 334.997 327.642ZM450.77 317.089 497.14 317.089 497.14 333.398 450.77 333.398Z" stroke="#000000" stroke-width="1.0993" stroke-linejoin="round" stroke-miterlimit="10" fill="#66FF33" transform="matrix(1 0 0 1.00165 -242.726 -294.057)"/><path d="M0 0 0.000115412 201.152" stroke="#000000" stroke-width="1.0993" stroke-linejoin="round" stroke-miterlimit="10" fill="none" fill-rule="evenodd" transform="matrix(1 0 0 -1.00165 57.4036 211.253)"/><path d="M296.612 504.48 300.129 504.48M296.612 482.11 300.129 482.11M296.612 459.724 300.129 459.724M296.612 437.338 300.129 437.338M296.612 414.949 300.129 414.949M296.612 392.564 300.129 392.564M296.612 370.498 300.129 370.498M296.612 348.112 300.129 348.112M296.612 325.723 300.129 325.723M296.612 303.327 300.129 303.327" stroke="#000000" stroke-width="1.0993" stroke-linejoin="round" stroke-miterlimit="10" fill="none" transform="matrix(1 0 0 1.00165 -242.726 -294.057)"/><path d="M300.129 504.48 531.982 504.48" stroke="#000000" stroke-width="1.0993" stroke-linejoin="round" stroke-miterlimit="10" fill="none" fill-rule="evenodd" transform="matrix(1 0 0 1.00165 -242.726 -294.057)"/><text font-family="Arial,Arial_MSFontService,sans-serif" font-weight="400" font-size="37" transform="matrix(0.319797 0 0 0.320323 103.985 195)">92</text><text font-family="Arial,Arial_MSFontService,sans-serif" font-weight="400" font-size="37" transform="matrix(0.319797 0 0 0.320323 117.417 195)">.</text><text font-family="Arial,Arial_MSFontService,sans-serif" font-weight="400" font-size="37" transform="matrix(0.319797 0 0 0.320323 120.615 195)">2</text><text font-family="Arial,Arial_MSFontService,sans-serif" font-weight="400" font-size="37" transform="matrix(0.319797 0 0 0.320323 219.832 194)">96</text><text font-family="Arial,Arial_MSFontService,sans-serif" font-weight="400" font-size="37" transform="matrix(0.319797 0 0 0.320323 233.263 194)">.</text><text font-family="Arial,Arial_MSFontService,sans-serif" font-weight="400" font-size="37" transform="matrix(0.319797 0 0 0.320323 236.461 194)">1</text><text font-family="Arial,Arial_MSFontService,sans-serif" font-weight="400" font-size="37" transform="matrix(0.319797 0 0 0.320323 100.723 146)">124</text><text font-family="Arial,Arial_MSFontService,sans-serif" font-weight="400" font-size="37" transform="matrix(0.319797 0 0 0.320323 120.87 146)">.</text><text font-family="Arial,Arial_MSFontService,sans-serif" font-weight="400" font-size="37" transform="matrix(0.319797 0 0 0.320323 124.068 146)">7</text><text font-family="Arial,Arial_MSFontService,sans-serif" font-weight="400" font-size="37" transform="matrix(0.319797 0 0 0.320323 216.57 145)">123</text><text font-family="Arial,Arial_MSFontService,sans-serif" font-weight="400" font-size="37" transform="matrix(0.319797 0 0 0.320323 236.717 145)">.</text><text font-family="Arial,Arial_MSFontService,sans-serif" font-weight="400" font-size="37" transform="matrix(0.319797 0 0 0.320323 239.915 145)">6</text><text font-family="Arial,Arial_MSFontService,sans-serif" font-weight="400" font-size="37" transform="matrix(0.319797 0 0 0.320323 100.723 78)">178</text><text font-family="Arial,Arial_MSFontService,sans-serif" font-weight="400" font-size="37" transform="matrix(0.319797 0 0 0.320323 120.87 78)">.</text><text font-family="Arial,Arial_MSFontService,sans-serif" font-weight="400" font-size="37" transform="matrix(0.319797 0 0 0.320323 124.068 78)">4</text><text font-family="Arial,Arial_MSFontService,sans-serif" font-weight="400" font-size="37" transform="matrix(0.319797 0 0 0.320323 216.57 80)">162</text><text font-family="Arial,Arial_MSFontService,sans-serif" font-weight="400" font-size="37" transform="matrix(0.319797 0 0 0.320323 236.717 80)">.</text><text font-family="Arial,Arial_MSFontService,sans-serif" font-weight="400" font-size="37" transform="matrix(0.319797 0 0 0.320323 239.915 80)">7</text><text font-family="Arial,Arial_MSFontService,sans-serif" font-weight="400" font-size="37" transform="matrix(0.319797 0 0 0.320323 102.959 24)">10</text><text font-family="Arial,Arial_MSFontService,sans-serif" font-weight="400" font-size="37" transform="matrix(0.319797 0 0 0.320323 116.39 24)">.</text><text font-family="Arial,Arial_MSFontService,sans-serif" font-weight="400" font-size="37" transform="matrix(0.319797 0 0 0.320323 119.588 24)">4</text><text font-family="Arial,Arial_MSFontService,sans-serif" font-weight="400" font-size="37" transform="matrix(0.319797 0 0 0.320323 219.832 36)">36</text><text font-family="Arial,Arial_MSFontService,sans-serif" font-weight="400" font-size="37" transform="matrix(0.319797 0 0 0.320323 233.263 36)">.</text><text font-family="Arial,Arial_MSFontService,sans-serif" font-weight="400" font-size="37" transform="matrix(0.319797 0 0 0.320323 236.461 36)">8</text><text font-family="Arial,Arial_MSFontService,sans-serif" font-weight="400" font-size="37" transform="matrix(0.319797 0 0 0.320323 40.8688 215)">0</text><text font-family="Arial,Arial_MSFontService,sans-serif" font-weight="400" font-size="37" transform="matrix(0.319797 0 0 0.320323 34.3462 193)">50</text><text font-family="Arial,Arial_MSFontService,sans-serif" font-weight="400" font-size="37" transform="matrix(0.319797 0 0 0.320323 27.8236 170)">100</text><text font-family="Arial,Arial_MSFontService,sans-serif" font-weight="400" font-size="37" transform="matrix(0.319797 0 0 0.320323 27.8236 148)">150</text><text font-family="Arial,Arial_MSFontService,sans-serif" font-weight="400" font-size="37" transform="matrix(0.319797 0 0 0.320323 27.8236 125)">200</text><text font-family="Arial,Arial_MSFontService,sans-serif" font-weight="400" font-size="37" transform="matrix(0.319797 0 0 0.320323 27.8236 103)">250</text><text font-family="Arial,Arial_MSFontService,sans-serif" font-weight="400" font-size="37" transform="matrix(0.319797 0 0 0.320323 27.8236 81)">300</text><text font-family="Arial,Arial_MSFontService,sans-serif" font-weight="400" font-size="37" transform="matrix(0.319797 0 0 0.320323 27.8236 58)">350</text><text font-family="Arial,Arial_MSFontService,sans-serif" font-weight="400" font-size="37" transform="matrix(0.319797 0 0 0.320323 27.8236 36)">400</text><text font-family="Arial,Arial_MSFontService,sans-serif" font-weight="400" font-size="37" transform="matrix(0.319797 0 0 0.320323 27.8236 13)">450</text><text font-family="Arial,Arial_MSFontService,sans-serif" font-weight="400" font-size="37" transform="matrix(0.319797 0 0 0.320323 99.4377 229)">PEAR</text><text font-family="Arial,Arial_MSFontService,sans-serif" font-weight="400" font-size="37" transform="matrix(0.319797 0 0 0.320323 183.675 229)">TEMOA</text><text font-family="Arial,Arial_MSFontService,sans-serif" font-weight="400" font-size="37" transform="matrix(0.319797 0 0 0.320323 226.208 229)">-</text><text font-family="Arial,Arial_MSFontService,sans-serif" font-weight="400" font-size="37" transform="matrix(0.319797 0 0 0.320323 230.046 229)">Piedmont</text><text font-family="Arial,Arial_MSFontService,sans-serif" font-weight="400" font-size="37" transform="matrix(1.95819e-17 -0.320323 0.319797 1.96141e-17 20.8249 192)">Final Energy Consumption </text><text font-family="Arial,Arial_MSFontService,sans-serif" font-weight="400" font-size="37" transform="matrix(1.95819e-17 -0.320323 0.319797 1.96141e-17 20.8249 50)">(</text><text font-family="Arial,Arial_MSFontService,sans-serif" font-weight="400" font-size="37" transform="matrix(1.95819e-17 -0.320323 0.319797 1.96141e-17 20.8249 46)">PJ</text><text font-family="Arial,Arial_MSFontService,sans-serif" font-weight="400" font-size="37" transform="matrix(1.95819e-17 -0.320323 0.319797 1.96141e-17 20.8249 32)">)</text><path d="M541.576 376.881 547.332 376.881 547.332 382.637 541.576 382.637Z" stroke="#000000" stroke-width="1.0993" stroke-linejoin="round" stroke-miterlimit="10" fill="#66FF33" transform="matrix(1 0 0 1.00165 -242.726 -294.057)"/><text font-family="Arial,Arial_MSFontService,sans-serif" font-weight="400" font-size="37" transform="matrix(0.319797 0 0 0.320323 307.159 90)">Agriculture</text><path d="M541.576 398.627 547.332 398.627 547.332 404.383 541.576 404.383Z" stroke="#000000" stroke-width="1.0993" stroke-linejoin="round" stroke-miterlimit="10" fill="#FFFF00" transform="matrix(1 0 0 1.00165 -242.726 -294.057)"/><text font-family="Arial,Arial_MSFontService,sans-serif" font-weight="400" font-size="37" transform="matrix(0.319797 0 0 0.320323 307.159 112)">Buildings</text><path d="M541.576 420.373 547.332 420.373 547.332 426.129 541.576 426.129Z" stroke="#000000" stroke-width="1.0993" stroke-linejoin="round" stroke-miterlimit="10" fill="#FF6600" transform="matrix(1 0 0 1.00165 -242.726 -294.057)"/><text font-family="Arial,Arial_MSFontService,sans-serif" font-weight="400" font-size="37" transform="matrix(0.319797 0 0 0.320323 307.159 134)">Transport</text><path d="M541.576 442.119 547.332 442.119 547.332 447.876 541.576 447.876Z" stroke="#000000" stroke-width="1.0993" stroke-linejoin="round" stroke-miterlimit="10" fill="#66CCFF" transform="matrix(1 0 0 1.00165 -242.726 -294.057)"/><text font-family="Arial,Arial_MSFontService,sans-serif" font-weight="400" font-size="37" transform="matrix(0.319797 0 0 0.320323 307.159 155)">Industry</text></g></svg>